<svg version="1.1" xmlns="http://www.w3.org/2000/svg" viewBox="0 0 727.0773068958665 517.0255827888855" width="1454.154613791733" height="1034.051165577771">
  <!-- svg-source:excalidraw -->
  
  <defs>
    <style>
      @font-face {
        font-family: "Virgil";
        src: url("https://excalidraw.com/Virgil.woff2");
      }
      @font-face {
        font-family: "Cascadia";
        src: url("https://excalidraw.com/Cascadia.woff2");
      }
    </style>
  </defs>
  <g stroke-linecap="round" transform="translate(10 109.29670876495078) rotate(0 235.59658813476562 121.18301391601562)"><path d="M-0.51 0.68 C159.64 -1.36, 321.1 -1.55, 471.96 0.28 M-0.43 0.25 C136.25 2.08, 272.06 1.83, 470.97 0.42 M470.31 -0.12 C469.07 95.65, 468.04 194, 471.68 241.72 M471.71 -0.33 C470.61 67.06, 469.53 135.63, 471.28 242.97 M472.08 242.42 C356.06 241.26, 239.41 241.73, -0.3 242.12 M471.05 242.68 C376.45 242.46, 282.83 243.09, 0.37 242.14 M-1.12 243.48 C-2.08 162.78, 0.24 84.91, -0.08 -1.09 M0.59 242.86 C-0.09 170.92, 0.58 100.74, 0.36 -0.09" stroke="#000000" stroke-width="1" fill="none"></path></g><g stroke-linecap="round" transform="translate(17.834564208984375 116.5334336184664) rotate(0 227.93423461914062 113.96395874023438)"><path d="M0.33 -0.58 C163.49 -1.88, 327.37 -1.93, 455.71 0.42 M0.21 0.43 C170.27 0.45, 341.43 -0.24, 455.43 0.36 M456.94 -1.52 C456.76 55.29, 457.74 109.06, 455.62 227.84 M455.35 -0.51 C456.39 90.95, 456.83 180.77, 455.31 228.43 M455.06 228.01 C294.79 229.52, 133.58 228.08, 0.08 227.79 M455.85 227.87 C279.75 228.02, 103.61 228.6, 0.14 227.49 M1.67 228.62 C-0.14 163.5, -1.63 100.69, 0.6 0.5 M-0.56 227.14 C-1.04 158.6, -1.21 88.31, 0.22 -0.02" stroke="#000000" stroke-width="1" fill="none"></path></g><g stroke-linecap="round"><g stroke-opacity="0.3" fill-opacity="0.3" transform="translate(66.00607299804688 255.01535195342734) rotate(0 132.79628357142212 -54.33753601759673)"><path d="M-2.54 -0.58 C11.7 -8.64, 38.12 -32.13, 83.23 -50.05 C128.34 -67.97, 237.71 -98.42, 268.13 -108.09 M1.28 -3.37 C15.26 -11.97, 36.07 -36.6, 80.5 -53.55 C124.92 -70.49, 236.83 -96.36, 267.84 -105.03" stroke="#000000" stroke-width="4" fill="none"></path></g></g><g stroke-linecap="round"><g stroke-opacity="0.3" fill-opacity="0.3" transform="translate(47.812408447265625 315.16455239288047) rotate(0 184.9611547783017 -83.64670782834293)"><path d="M-0.58 -0.91 C32.75 -12.71, 136.44 -45.75, 198.29 -73.33 C260.14 -100.91, 341.81 -150.64, 370.51 -166.38 M4.29 -3.87 C37.67 -16.15, 136.84 -50.29, 197.56 -76.82 C258.29 -103.35, 339.74 -148.22, 368.65 -163.04" stroke="#000000" stroke-width="4" fill="none"></path></g></g><g stroke-linecap="round"><g stroke-opacity="0.3" fill-opacity="0.3" transform="translate(228.85781860351562 322.8938614749117) rotate(0 86.64198846071957 -43.80550576895476)"><path d="M-0.91 2.78 C16.32 -5.79, 71.66 -36.48, 100.84 -52.01 C130.03 -67.54, 162.2 -84.07, 174.19 -90.4 M3.79 1.83 C21.13 -6.22, 71.98 -33.56, 100.12 -48.42 C128.26 -63.28, 160.5 -80.87, 172.62 -87.33" stroke="#000000" stroke-width="4" fill="none"></path></g></g><g stroke-linecap="round"><g transform="translate(500.05922387961607 447.4018000663361) rotate(0.14687237000958842 94.39233014103775 29.698859234014094)"><path d="M-0.1 2.52 C32.4 12.44, 160.32 48.8, 192.38 57.98 M-3.6 1.41 C28.99 10.69, 158.93 45.4, 191.48 53.99" stroke="#000000" stroke-width="1" fill="none"></path></g></g><g stroke-linecap="round"><g transform="translate(696.5830176969403 502.8205360994669) rotate(0.14687237000958842 1.6696711768273644 -228.20983614643538)"><path d="M-1.56 -2.6 C-1.16 -77.91, 3.95 -378.6, 4.9 -453.86 M2.79 2.16 C2.54 -73.88, 2.55 -383.06, 2.34 -458.58" stroke="#000000" stroke-width="1" fill="none"></path></g></g><g stroke-linecap="round"><g transform="translate(497.8210891285089 15.817630041967703) rotate(0.14687237000958842 105.68961215329807 16.047934997693588)"><path d="M-0.57 1.71 C33.96 6.1, 171.81 24.28, 206.54 29.07 M4.31 0.17 C39.8 6.1, 178.39 26.37, 211.95 31.93" stroke="#000000" stroke-width="1" fill="none"></path></g></g><g stroke-linecap="round"><g transform="translate(492.5311123801263 449.79896285809497) rotate(0.14687237000958842 0.9488284757518954 -215.7968045875634)"><path d="M-1.82 2.06 C-1.61 -69.17, -2.14 -356.89, -1.54 -428.99 M2.39 0.71 C3.71 -71.28, 3.92 -362.21, 3.6 -433.65" stroke="#000000" stroke-width="1" fill="none"></path></g></g><g stroke-linecap="round"><g transform="translate(505.32495592003045 9.39163096019439) rotate(0.14687237000958842 100.85778642032597 13.74954454485669)"><path d="M2.25 2.16 C35.56 5.79, 168.3 19.3, 201.69 23.04 M0.03 0.87 C32.77 4.85, 165.76 23.47, 199.26 26.63" stroke="#000000" stroke-width="1" fill="none"></path></g></g><g stroke-linecap="round"><g transform="translate(709.9178872355214 504.37781871217277) rotate(0.14687237000958842 2.1338314705567427 -230.72641271267864)"><path d="M-2.29 2.66 C-2.48 -75.15, 0.13 -386.78, 1.3 -464.11 M1.66 1.64 C2.13 -74.64, 6.24 -383.41, 6.57 -461.38" stroke="#000000" stroke-width="1" fill="none"></path></g></g><g stroke-linecap="round"><g stroke-opacity="0.3" fill-opacity="0.3" transform="translate(514.2746320381574 257.1953973020608) rotate(0 53.044839985519616 -86.43145453184844)"><path d="M0.28 2.51 C8.28 -15.61, 28.64 -80.37, 45.85 -110.02 C63.07 -139.66, 93.82 -163.99, 103.58 -175.38 M-3.01 1.41 C6.06 -16.3, 32.45 -78.58, 51.14 -107.47 C69.82 -136.37, 100.27 -160.37, 109.1 -171.96" stroke="#000000" stroke-width="4" fill="none"></path></g></g><g stroke-linecap="round"><g stroke-opacity="0.3" fill-opacity="0.3" transform="translate(519.3262067451886 382.68327895693955) rotate(0 75.15737696252762 -148.06221800051628)"><path d="M2.51 -2.06 C15.08 -25.6, 49.59 -91.43, 74.15 -140.94 C98.71 -190.45, 137.75 -272.79, 149.88 -299.12 M0.43 2.99 C14 -20.31, 54.81 -88.64, 79.47 -138.62 C104.13 -188.6, 137.25 -270.49, 148.39 -296.89" stroke="#000000" stroke-width="4" fill="none"></path></g></g><g stroke-linecap="round"><g stroke-opacity="0.3" fill-opacity="0.3" transform="translate(549.8856549873763 438.21416274600205) rotate(0 63.836576835811115 -127.39428345791995)"><path d="M-2.06 -2 C10.65 -21.04, 54.6 -69.04, 76.57 -111.69 C98.54 -154.33, 120.84 -233.57, 129.73 -257.87 M2.02 3.08 C15.55 -15.64, 60.82 -73.2, 81.66 -116.39 C102.49 -159.58, 119.02 -232.77, 127.04 -256.04" stroke="#000000" stroke-width="4" fill="none"></path></g></g></svg>